<svg width="282" height="239" viewBox="0 0 282 239" fill="none" xmlns="http://www.w3.org/2000/svg">
<path d="M21.8384 232.248C24.0598 234.977 28.5992 234.458 30.9172 232.067C31.5088 231.463 32.3176 229.929 32.8126 229.18C34.032 227.163 35.6739 225.448 37.4365 223.89C46.7688 216.233 60.7855 217.489 70.311 224.18C78.3274 229.579 80.8264 240.557 92.7424 237.429C96.4367 236.439 102.171 234.132 105.841 232.659L118.844 227.514C130.518 223.093 146.068 216.233 157.513 211.294C160.604 209.881 165.735 207.803 168.741 206.451C171.228 205.207 172.242 201.873 171.458 199.289C170.818 197.042 170.202 194.796 169.635 192.525C168.5 187.996 167.546 183.419 166.725 178.83C163.405 160.436 162.608 141.716 162.246 123.069C162.029 104.409 161.835 85.7254 163.538 67.1143C166.302 39.131 176.576 12.2952 191.269 -11.5455C201.253 -27.2944 211.66 -43.4539 226.715 -54.8549C226.763 -54.879 227.995 -55.3863 228.103 -55.4346L228.357 -55.0481L230.289 -52.1012L230.554 -51.7027L230.18 -51.3766C208.304 -31.5698 193.949 -4.54068 184.376 23.0923C174.91 51.0634 171.204 80.7254 171.228 110.194C170.299 122.67 170.407 135.194 171.385 147.67C172.351 160.146 174.126 172.549 176.492 184.832C176.492 184.88 177.965 197.538 177.977 197.586C178.122 198.637 178.146 199.784 178.472 200.521C179.667 203.117 183.313 204.253 185.897 203.25L186.814 203.141L187.816 202.96L188.082 202.912C190.364 204.216 193.309 203.516 195.072 201.62L195.314 201.571L201.422 200.424C203.306 200.086 205.853 199.675 207.58 198.866C210.549 200.219 214.365 198.335 215.355 195.303C215.524 194.724 215.536 194.192 215.475 193.54L215.089 189.289C211.491 149.252 225.906 110.629 236.929 72.8752C260.978 19.6865 274.367 12.8266 275.393 -50.507C277.892 -56.8235 279.703 -63.4781 279.594 -70.2052C279.462 -78.2608 276.6 -86.9806 270.045 -91.8961C267.944 -93.0314 265.807 -92.8623 263.827 -91.4976C261.57 -90.1691 259.215 -89.0217 256.789 -88.0555C250.306 -85.471 243.267 -84.2874 236.289 -84.6256C229.528 -85.2174 222.936 -86.3526 217.141 -82.1376C201.145 -69.9999 184.545 -56.9201 174.005 -39.577C168.463 -32.9828 163.115 -26.2074 158.093 -19.1905C142.809 1.60669 131.641 24.7711 120.389 47.9717C112.687 63.3703 103.439 78.8655 88.9394 88.8535C78.3274 96.0878 65.844 100.677 59.2764 112.078C56.9705 115.955 55.5338 120.315 55.2199 124.784C53.8315 124.82 51.7066 124.856 50.3303 124.88L50.5114 123.443C51.4531 115.726 53.7349 107.96 58.2501 101.402C62.7895 96.7883 68.2586 93.3704 73.5706 90.0733C84.231 83.8051 93.8169 75.9307 100.783 65.6891C104.308 60.6287 107.169 55.1093 109.355 49.3364C115.488 39.7711 120.534 29.4812 126.245 19.4812C137.678 -0.325684 149.968 -19.6253 163.079 -38.3572C169.864 -47.693 176.685 -57.0529 183.627 -66.2559C187.696 -69.4081 191.595 -72.7777 195.277 -76.3646L195.41 -76.4492L196.605 -77.1859C197.076 -77.4758 197.209 -77.5482 197.39 -77.7536C197.74 -78.1279 197.825 -78.6473 197.692 -79.2149C197.668 -80.1207 197.185 -80.9299 196.243 -81.0627C191.885 -81.3284 187.382 -81.3405 183.023 -81.2197C182.251 -81.4975 181.563 -81.6183 180.633 -81.57C175.828 -81.413 166.725 -81.1352 161.823 -80.9782L140.322 -80.3019C126.305 -79.6497 111.54 -80.483 98.5374 -74.7463L96.9679 -74.0458L96.4971 -75.6763C96.2798 -76.4734 95.7365 -78.2366 95.5192 -79.0338L97.0403 -79.4081C97.9337 -79.541 99.298 -80.5193 100.107 -80.9178C117.093 -90.4951 138.185 -89.4444 157.055 -89.4565L218.433 -89.3357C233.597 -89.3116 249.171 -88.0435 262.342 -96.2802C266.507 -98.8648 270.383 -102.077 272.29 -106.353C274.258 -110.64 274.548 -115.664 274.524 -120.689C274.524 -135.93 273.027 -151.148 269.924 -166.075C268.427 -180 266.374 -193.829 263.936 -207.621C263.586 -220.484 263.187 -233.274 260.954 -245.919C259.747 -254.228 256.221 -261.583 249.835 -267.151C246.804 -270.001 243.412 -272.537 240.104 -275.363C233.669 -281.015 227.391 -286.668 219.254 -289.457C214.014 -291.994 208.147 -293.008 202.424 -294.228C196.521 -295.399 190.593 -296.402 184.641 -297.066C178.689 -297.755 172.701 -298.105 166.749 -298.02C160.894 -297.912 155.304 -297.803 149.98 -294.687L150.934 -296.269C151.091 -294.168 152.829 -291.74 154.278 -290.085C155.292 -289.011 156.246 -288.213 157.344 -288.093C157.381 -288.093 157.405 -288.093 157.369 -288.093C157.369 -288.093 157.32 -288.081 157.26 -288.056C157.163 -288.02 157.018 -287.899 156.982 -287.851C156.934 -287.791 156.97 -287.815 157.03 -287.96C157.103 -288.081 157.187 -288.31 157.405 -288.624C157.743 -289.264 158.926 -289.941 159.674 -289.904L160.99 -289.445C160.809 -289.626 160.532 -289.783 160.242 -289.856C160.097 -289.892 159.952 -289.904 159.831 -289.904C159.699 -289.904 159.807 -289.904 159.783 -289.904C161.473 -290.001 163.731 -290.17 165.397 -290.218C165.892 -290.218 166.447 -289.868 166.701 -289.602L167.184 -289.192L168.162 -288.37C181.575 -276.909 196.364 -265.931 213.954 -262.356C220.787 -260.87 228.514 -260.955 234.224 -255.75L234.623 -255.375L234.744 -254.832C238.547 -237.102 234.828 -219.022 231.086 -201.728C227.222 -183.986 224.349 -166.051 223.588 -147.959L221.826 -148.007L183.603 -149.046C174.065 -149.251 154.906 -149.916 145.368 -150.254C120.184 -150.894 94.3601 -152.367 69.8281 -145.966L68.7535 -145.677L67.9809 -146.582L67.8119 -146.776L67.003 -147.706L67.5583 -148.768C68.0292 -149.662 68.0654 -150.797 68.0775 -151.812C74.1743 -154.191 80.5729 -155.399 86.7784 -156.607C88.1909 -156.268 89.3258 -156.51 90.8349 -156.739C110.997 -159.831 131.605 -159.783 151.815 -157.102C152.962 -156.981 154.121 -156.8 155.244 -156.848C155.352 -156.848 155.413 -156.896 155.244 -156.812L155.195 -156.788C156.101 -156.872 156.463 -156.909 157.586 -156.788C165.143 -156.377 173.667 -156.462 181.225 -156.075L180.09 -153.092C176.238 -155.785 172.363 -158.466 168.922 -161.8C166.725 -163.853 166.677 -167.126 166.025 -169.747C165.832 -170.677 165.542 -171.703 165.288 -172.09L165.156 -172.295L165.107 -172.428C164.962 -172.851 164.938 -172.971 164.866 -173.225L164.673 -173.901L164.298 -175.242C164.033 -176.172 163.779 -177.114 163.489 -177.971C163.489 -177.983 163.441 -178.104 163.465 -178.032C163.465 -178.008 163.489 -177.983 163.514 -177.947C163.224 -178.418 162.801 -179.07 162.403 -179.433C162.053 -179.711 161.92 -179.904 161.57 -179.783C160.664 -179.421 160.23 -178.37 159.107 -177.899C158.226 -177.5 157.055 -177.959 156.692 -178.793C156.27 -179.638 156.282 -180.592 156.246 -181.389V-182.126V-182.488V-182.669C156.246 -182.742 156.246 -182.754 156.258 -182.959C156.354 -183.684 156.548 -183.938 156.705 -184.252C156.861 -184.529 157.018 -184.759 157.175 -184.976L157.996 -186.087C158.105 -186.244 158.214 -186.401 158.25 -186.486C158.286 -186.546 158.262 -186.534 158.262 -186.498C158.214 -186.329 158.214 -186.039 158.322 -185.846L159.3 -187.947C167.594 -190.834 161.111 -203.539 158.226 -208.781C157.876 -209.626 158.093 -208.986 158.177 -208.889C158.262 -208.757 158.25 -208.769 158.31 -208.72C158.032 -208.841 157.525 -209.143 157.03 -209.288C152.407 -211.003 146.479 -211.981 141.674 -213.298C140.551 -213.527 138.776 -214.24 137.666 -214.059C137.557 -214.059 137.581 -214.01 137.714 -214.143C137.774 -214.203 137.835 -214.3 137.871 -214.397C137.883 -214.445 137.895 -214.493 137.895 -214.542C137.895 -214.614 137.907 -214.578 137.871 -214.783L137.629 -213.6C135.239 -210.411 132.269 -206.353 129.83 -203.153L128.551 -201.426C128.321 -201.1 127.838 -200.459 127.621 -200.145L127.476 -199.94C127.476 -199.94 127.5 -199.988 127.5 -200.025L127.319 -199.686L121.947 -191.957L121.814 -191.764C113.942 -185.677 105.757 -179.88 96.9317 -175.121C92.5492 -172.766 88.034 -170.652 83.3739 -168.877C78.8707 -166.981 73.9449 -166.196 69.5625 -164.082C65.2042 -162.899 61.039 -161.184 57.4051 -158.539C53.916 -156.015 50.6081 -152.887 47.9037 -149.541C41.2757 -144.01 36.5552 -136.22 34.7925 -127.645C31.4604 -110.592 36.531 -92.7294 42.5675 -76.7511C48.942 -60.2534 59.6506 -45.9297 66.3752 -29.5287C73.2809 -13.0914 75.7559 5.16953 73.6914 22.8749C73.1843 27.2952 72.4117 31.6914 71.3734 36.0272C71.132 37.0658 71.0112 37.9474 71.2044 38.8774C71.7477 41.7881 74.9469 43.6117 77.7961 43.2615C78.8585 43.5876 79.9934 43.6118 81.0196 43.2132C82.0338 42.8992 82.9392 42.0175 83.6877 41.2808C87.3699 37.8146 91.6437 34.9522 96.3039 32.9836C99.0686 31.7638 102.063 31.1479 104.936 30.2783C104.501 32.5851 103.849 34.9885 102.799 37.09L102.485 37.2228C69.7677 50.9789 39.4044 72.6698 20.0999 102.887C1.00057 132.9 -5.21693 171.716 7.08534 205.484C10.5744 215.074 15.5846 224.108 21.8263 232.187L21.5365 232.405C-7.92129 195.376 -5.61534 141.136 19.0737 102.235C38.3662 71.6554 68.826 49.5417 101.773 35.5561L101.302 36.003C101.99 34.5295 102.497 32.9595 102.835 31.3653L103.934 32.4402C99.2255 33.6237 94.6861 35.3508 90.6538 38.1286C88.6376 39.4692 86.7422 40.9909 84.9916 42.6576C83.1444 44.7591 80.1986 46.0393 77.434 45.1576L77.7961 45.1938C75.285 45.4112 72.7497 44.4813 71.0112 42.6213C69.2244 40.8218 68.7656 37.8629 69.4538 35.544C70.4558 31.2928 71.2044 26.9691 71.6752 22.6334C74.9108 -4.99963 66.5322 -28.7799 52.1896 -52.0167C36.0844 -79.5772 17.4801 -127.319 45.5495 -151.015C51.3566 -158.43 59.3608 -164.505 68.5966 -166.752C71.8321 -168.346 78.1101 -169.904 82.3597 -171.582C86.887 -173.322 91.2816 -175.387 95.5554 -177.706C103.536 -181.933 113.641 -189.227 119.508 -193.672L124.868 -201.414L124.687 -201.075C124.808 -201.389 124.989 -201.607 125.158 -201.86L125.484 -202.331L126.124 -203.225C128.949 -207.042 132.341 -211.534 135.13 -215.363L134.889 -214.179C134.828 -214.517 134.853 -214.614 134.853 -214.819C134.865 -215.001 134.901 -215.182 134.961 -215.351C136.301 -218.37 140.08 -216.848 142.41 -216.293L148.628 -214.795C152.407 -213.781 156.234 -213.201 159.807 -211.438C160.157 -211.244 160.507 -210.955 160.773 -210.556C164.214 -204.735 171.844 -188.901 160.242 -184.94L161.22 -187.041C161.775 -185.556 160.483 -184.252 159.723 -183.165C159.602 -182.996 159.505 -182.839 159.433 -182.718C159.361 -182.621 159.336 -182.464 159.385 -182.718C159.385 -182.186 159.373 -180.979 159.469 -180.375C159.469 -180.278 159.493 -180.278 159.493 -180.266C159.493 -180.23 159.481 -180.326 159.445 -180.363L159.385 -180.447C159.336 -180.532 159.264 -180.604 159.179 -180.677C159.083 -180.761 158.697 -181.003 158.395 -180.991C158.286 -180.991 158.177 -180.991 158.081 -180.979C157.96 -180.955 157.876 -180.918 157.876 -180.918C157.707 -180.846 157.743 -180.846 157.755 -180.87C160.882 -184.288 163.96 -183.612 166.254 -179.602C166.749 -178.491 166.991 -177.295 167.341 -176.172L168.065 -173.648L167.896 -173.974C169.103 -171.848 169.236 -169.638 169.743 -167.488C170.081 -166.099 170.226 -164.988 171.168 -164.155C175.659 -159.916 181.466 -156.184 186.597 -152.621C180.983 -152.923 173.993 -153.104 168.355 -153.189C166.23 -153.261 160.954 -153.346 158.914 -153.442C157.634 -153.551 156.825 -153.442 155.376 -153.732L156.535 -153.805C156.016 -153.599 155.715 -153.587 155.461 -153.563C152.998 -153.442 149.509 -154.094 147.046 -154.336C129.951 -156.256 112.614 -156.22 95.5554 -153.95C92.5009 -153.708 89.5431 -152.633 86.4162 -153.152H87.0682C81.3335 -152.017 75.6472 -150.918 70.3593 -148.937L71.5062 -150.532C71.47 -149.396 71.1923 -148.225 70.649 -147.174L70.3955 -149.179L70.6853 -148.829L68.8381 -149.445C99.9137 -157.464 132.848 -153.889 164.528 -153.249C176.745 -152.911 209.246 -152.005 221.85 -151.679L220.003 -149.964C220.872 -167.718 223.745 -185.278 227.5 -202.549C229.359 -211.16 231.17 -219.735 232.076 -228.382C232.993 -237.005 232.957 -245.737 231.158 -254.131L231.665 -253.213C226.848 -257.489 219.471 -257.537 213.169 -258.89C206.264 -260.363 199.599 -262.827 193.37 -266.076C182.625 -271.655 173.305 -279.3 164.153 -287.066L164.093 -287.114C164.117 -287.102 163.96 -287.211 164.274 -286.969C164.504 -286.812 164.805 -286.704 165.071 -286.692C165.252 -286.692 165.337 -286.692 165.252 -286.692H165.216H165.143L164.986 -286.68C164.117 -286.619 161.98 -286.498 161.135 -286.45L160.483 -286.414L160.157 -286.39C159.602 -286.329 158.938 -286.45 158.528 -286.837L159.843 -286.378C159.868 -286.378 159.928 -286.378 160.085 -286.45C160.218 -286.523 160.338 -286.668 160.338 -286.668C160.338 -286.692 160.302 -286.595 160.206 -286.402C159.602 -284.953 158.093 -284.349 156.596 -284.59C154.531 -284.94 152.938 -286.293 151.61 -287.694C149.183 -290.484 147.276 -293.358 147.239 -297.392C150.535 -299.071 153.65 -300.665 157.429 -301.148C160.495 -301.438 163.574 -301.631 166.653 -301.68C178.919 -301.873 191.112 -300.194 203.101 -297.815C209.161 -296.499 215.475 -295.472 221.101 -292.585C223.576 -291.957 229.383 -288.841 232.474 -286.45C236.023 -283.817 239.186 -280.895 242.41 -278.153C248.941 -272.597 256.499 -267.344 260.495 -259.288C264.455 -251.269 265.095 -242.428 266.085 -233.745C266.882 -225.158 267.159 -216.559 267.34 -208.02C269.514 -195.834 271.952 -179.469 273.22 -166.824C276.335 -151.691 277.832 -136.208 277.82 -120.761C277.82 -115.628 277.59 -110.121 275.26 -105.036C272.954 -100.012 268.596 -96.3647 264.008 -93.5507C250.354 -84.9637 233.778 -86.0869 218.397 -86.2077C206.916 -86.256 151.936 -86.4492 141.734 -86.4613C127.379 -86.2802 112.397 -84.9879 99.8895 -77.4154C99.2255 -77.041 98.5011 -76.7391 97.7285 -76.5458L98.815 -78.3936L99.3342 -76.6062L97.2939 -77.5241C110.876 -83.5024 125.846 -82.6328 140.213 -83.2729C147.324 -83.4903 165.578 -84.0338 172.46 -84.2512L177.832 -84.4081C179.607 -84.3961 181.925 -84.7705 183.675 -84.07L183.168 -84.1424C186.138 -84.227 189.096 -84.227 192.066 -84.1424C193.37 -84.07 195.301 -84.0821 196.654 -83.9251C197.68 -83.7801 198.73 -83.2125 199.406 -82.3671C200.094 -81.5337 200.432 -80.5072 200.481 -79.5047L200.457 -79.7222C200.746 -78.4178 200.384 -76.884 199.442 -75.8936C198.658 -75.0241 197.692 -74.6738 196.847 -74.0941C194.831 -71.9564 187.84 -65.8815 185.559 -64.3477C164.938 -37.1012 145.513 -8.92474 128.526 20.7614C123.082 30.2421 117.25 41.945 111.721 50.3388C107.23 62.1867 99.7929 72.9114 90.2433 81.2448C81.0679 89.7472 68.8743 94.3245 60.0731 103.044C56.6082 107.972 53.6142 116.656 52.9502 123.685L51.6826 122.284L54.0246 122.235L52.8053 123.358C53.7591 114.409 58.9021 106.329 65.7716 100.738C72.5928 95.1216 80.5729 91.5467 87.5269 86.7761C94.4688 82.0297 100.336 75.7375 105.298 68.8776C119.955 47.706 128.43 22.9715 142 1.02698C150.801 -13.8161 161.002 -27.7896 172.146 -40.9418C180.524 -55.0844 194.468 -67.3187 207.712 -77.7173C211.721 -80.8454 215.705 -84.6618 220.703 -86.4251C225.713 -88.2971 231.363 -87.1255 236.349 -86.8236C243.013 -86.4855 249.75 -87.6086 255.956 -90.0724C259.01 -91.0748 262.523 -93.5749 265.276 -94.5652C269.236 -95.6884 272.785 -92.9952 274.995 -90.0121C279.486 -84.4444 281.514 -77.2704 281.598 -70.2897C281.695 -63.2366 279.824 -56.3766 277.288 -49.9877C277.144 -40.9418 276.492 -27.8499 275.067 -17.5117C272.749 4.50528 263.344 24.9402 252.865 44.119C247.831 53.805 242.989 63.5997 238.571 73.5756C232.389 94.6506 224.904 116.849 220.401 138.745C216.634 156.644 215.029 175.086 217.081 193.286C217.757 198.25 211.769 202.332 207.254 200.472L207.869 200.46C206.071 201.354 203.571 201.547 201.676 201.97L195.567 203.105L195.99 202.888C193.841 205.025 190.315 205.871 187.563 204.41L188.07 204.482L187.068 204.663L185.957 204.796L186.174 204.748C182.239 206.209 176.89 203.709 176.54 199.325L176.359 197.731L174.898 184.965C172.592 173.008 170.769 160.146 169.84 147.718C168.874 135.291 168.789 122.332 169.743 110.098C169.779 95.2907 170.685 80.4718 172.858 65.8099C179.45 22.3073 196.533 -21.932 229.395 -52.2945L229.287 -51.5698L227.367 -54.4926L228.055 -54.2872L227.089 -53.8766C212.843 -43.0553 201.809 -26.5093 192.102 -11.0745C171.228 22.4764 162.681 55.6649 163.007 95.025C162.741 122.924 162.632 151.064 167.365 178.637C168.174 183.226 169.127 187.779 170.25 192.296C170.83 195.75 172.87 199.12 172.146 202.658C171.735 204.434 170.673 206.173 168.971 206.97C157.743 211.813 143.292 217.984 132.028 222.84C125.605 225.34 112.445 230.569 105.998 233.081C102.509 234.313 96.5574 237.043 92.8269 237.852C80.4884 240.919 78.255 230.195 70.0092 224.494C60.6527 217.888 46.8413 216.632 37.6538 224.132C35.9274 225.654 34.3097 227.344 33.1024 229.325L32.1848 230.799C31.883 231.294 31.5571 231.825 31.1466 232.26C28.6596 234.808 23.8907 235.328 21.5124 232.393L21.8022 232.175L21.8384 232.248Z" fill="#d4a63a" fill-opacity="1"/>
</svg>
